<svg xmlns="http://www.w3.org/2000/svg" xmlns:xlink="http://www.w3.org/1999/xlink" viewBox="0 0 162 218.717">
  <defs>
    <style>
      .cls-1, .cls-3 {
        stroke: #ecedef;
      }

      .cls-2 {
        clip-path: url(#clip-path);
      }

      .cls-3 {
        stroke-width: 0.469px;
      }
    </style>
    <clipPath id="clip-path">
      <rect id="_96f402b4e66b5abbb6c6839881adcced" data-name="96f402b4e66b5abbb6c6839881adcced" class="cls-1" width="162" height="218.717"/>
    </clipPath>
  </defs>
  <g id="Mask_Group_3" data-name="Mask Group 3" class="cls-2">
    <g id="quotations-button" transform="translate(0 28.359)">
      <g id="Group_11" data-name="Group 11">
        <g id="Group_10" data-name="Group 10">
          <g id="Group_9" data-name="Group 9">
            <path id="Path_43" data-name="Path 43" class="cls-3" d="M81,0a81,81,0,1,0,81,81A81,81,0,0,0,81,0Zm0,151.875A70.875,70.875,0,1,1,151.875,81,70.959,70.959,0,0,1,81,151.875Z"/>
            <path id="Path_44" data-name="Path 44" class="cls-3" d="M83.991,78.6l-2.359-1.671-.081-.061-.152-.061-1.721-.82.051.121a13.6,13.6,0,0,0-5.2-1.144c-8.242,0-14.914,6.936-14.914,15.491s6.682,15.491,14.914,15.491a14.3,14.3,0,0,0,7.239-2.025c-.739,8.282-4.911,20.362-20.2,32.673a5.233,5.233,0,0,0-.871,7.148,4.776,4.776,0,0,0,6.885.9c18.762-15.137,23.449-30.689,24.077-41.077C92.729,90.282,88.7,83.3,85.014,79.651Z" transform="translate(-19.12 -24.045)"/>
            <path id="Path_45" data-name="Path 45" class="cls-3" d="M156.257,78.6,153.9,76.928l-.081-.061-.152-.061-1.721-.82.051.121a13.639,13.639,0,0,0-5.2-1.144c-8.242,0-14.914,6.936-14.914,15.491s6.652,15.491,14.914,15.491a14.305,14.305,0,0,0,7.239-2.025c-.739,8.282-4.91,20.362-20.2,32.673a5.223,5.223,0,0,0-.871,7.148,4.776,4.776,0,0,0,6.885.9c18.762-15.137,23.449-30.689,24.077-41.077,1.073-13.284-2.967-20.27-6.642-23.915Z" transform="translate(-42.3 -24.045)"/>
          </g>
        </g>
      </g>
    </g>
  </g>
</svg>
