<svg   xmlns="http://www.w3.org/2000/svg" viewBox="0 0 67.399 54.668">
  <defs>
    <style>
      .cls-1 {
        fill: #ffffff;
        fill-rule: evenodd;
      }
    </style>
  </defs>
  <path id="Path_39" data-name="Path 39" class="cls-1" d="M59.343,56.668c25.462,0,39.316-20.969,39.316-39.316V15.48a30.437,30.437,0,0,0,6.74-7.114,31.083,31.083,0,0,1-7.863,2.247,14.568,14.568,0,0,0,5.991-7.489,34.345,34.345,0,0,1-8.612,3.37A13.372,13.372,0,0,0,84.8,2,14.068,14.068,0,0,0,70.951,15.854a7.3,7.3,0,0,0,.374,3,38.713,38.713,0,0,1-28.457-14.6A14.34,14.34,0,0,0,41,11.361a14.877,14.877,0,0,0,5.991,11.608A12.623,12.623,0,0,1,40.621,21.1h0a13.684,13.684,0,0,0,11.233,13.48,11.543,11.543,0,0,1-3.744.374,6.372,6.372,0,0,1-2.621-.374,14.185,14.185,0,0,0,13.105,9.735A28.271,28.271,0,0,1,41.37,50.3,10.367,10.367,0,0,1,38,49.928a35.343,35.343,0,0,0,21.343,6.74" transform="translate(-38 -2)"/>
</svg>
